<mxfile host="app.diagrams.net" modified="2023-08-29T15:34:50.526Z" agent="Mozilla/5.0 (Windows NT 10.0; Win64; x64) AppleWebKit/537.36 (KHTML, like Gecko) Chrome/116.0.0.0 Safari/537.36" etag="P_AAQUSnO06LOYWaL3-H" version="21.6.9" type="device">
  <diagram name="Page-1" id="3TS1BRU4KdbNx4osi2sh">
    <mxGraphModel dx="1588" dy="2012" grid="1" gridSize="10" guides="1" tooltips="1" connect="1" arrows="1" fold="1" page="1" pageScale="1" pageWidth="850" pageHeight="1100" math="0" shadow="0">
      <root>
        <mxCell id="0" />
        <mxCell id="1" parent="0" />
        <mxCell id="MPyPgwC-mAi5A55ltHDj-23" style="edgeStyle=orthogonalEdgeStyle;rounded=0;orthogonalLoop=1;jettySize=auto;html=1;entryX=0;entryY=0.5;entryDx=0;entryDy=0;" edge="1" parent="1" source="MPyPgwC-mAi5A55ltHDj-14" target="MPyPgwC-mAi5A55ltHDj-16">
          <mxGeometry relative="1" as="geometry" />
        </mxCell>
        <mxCell id="MPyPgwC-mAi5A55ltHDj-14" value="" style="rounded=0;whiteSpace=wrap;html=1;" vertex="1" parent="1">
          <mxGeometry x="350" y="-570" width="160" height="60" as="geometry" />
        </mxCell>
        <mxCell id="MPyPgwC-mAi5A55ltHDj-15" value="User" style="text;html=1;strokeColor=none;fillColor=none;align=center;verticalAlign=middle;whiteSpace=wrap;rounded=0;fontSize=24;" vertex="1" parent="1">
          <mxGeometry x="400" y="-555" width="60" height="30" as="geometry" />
        </mxCell>
        <mxCell id="MPyPgwC-mAi5A55ltHDj-16" value="" style="ellipse;whiteSpace=wrap;html=1;aspect=fixed;" vertex="1" parent="1">
          <mxGeometry x="690" y="-595" width="110" height="110" as="geometry" />
        </mxCell>
        <mxCell id="MPyPgwC-mAi5A55ltHDj-17" value="&lt;br&gt;&lt;span style=&quot;font-size: 16px;&quot;&gt;Login&lt;/span&gt;&lt;br&gt;" style="ellipse;whiteSpace=wrap;html=1;aspect=fixed;" vertex="1" parent="1">
          <mxGeometry x="690" y="-460" width="110" height="110" as="geometry" />
        </mxCell>
        <mxCell id="MPyPgwC-mAi5A55ltHDj-18" value="&lt;font style=&quot;font-size: 16px;&quot;&gt;View&lt;br&gt;Monument&lt;/font&gt;" style="ellipse;whiteSpace=wrap;html=1;aspect=fixed;" vertex="1" parent="1">
          <mxGeometry x="690" y="-320" width="110" height="110" as="geometry" />
        </mxCell>
        <mxCell id="MPyPgwC-mAi5A55ltHDj-19" value="&lt;font style=&quot;font-size: 16px;&quot;&gt;Book&lt;br&gt;Ticket&lt;/font&gt;" style="ellipse;whiteSpace=wrap;html=1;aspect=fixed;" vertex="1" parent="1">
          <mxGeometry x="690" y="-180" width="110" height="110" as="geometry" />
        </mxCell>
        <mxCell id="MPyPgwC-mAi5A55ltHDj-27" value="" style="endArrow=classic;startArrow=classic;html=1;rounded=0;entryX=0.75;entryY=1;entryDx=0;entryDy=0;exitX=0;exitY=0.5;exitDx=0;exitDy=0;edgeStyle=orthogonalEdgeStyle;" edge="1" parent="1" source="MPyPgwC-mAi5A55ltHDj-18">
          <mxGeometry width="50" height="50" relative="1" as="geometry">
            <mxPoint x="699.999999999995" y="-265" as="sourcePoint" />
            <mxPoint x="480.0000000000002" y="-510" as="targetPoint" />
            <Array as="points">
              <mxPoint x="480" y="-265" />
            </Array>
          </mxGeometry>
        </mxCell>
        <mxCell id="MPyPgwC-mAi5A55ltHDj-29" value="" style="endArrow=classic;startArrow=classic;html=1;rounded=0;entryX=0.5;entryY=1;entryDx=0;entryDy=0;exitX=0;exitY=0.5;exitDx=0;exitDy=0;edgeStyle=orthogonalEdgeStyle;" edge="1" parent="1" source="MPyPgwC-mAi5A55ltHDj-19">
          <mxGeometry width="50" height="50" relative="1" as="geometry">
            <mxPoint x="714.999999999995" y="-125" as="sourcePoint" />
            <mxPoint x="455.0000000000002" y="-510" as="targetPoint" />
          </mxGeometry>
        </mxCell>
        <mxCell id="MPyPgwC-mAi5A55ltHDj-30" value="" style="endArrow=classic;startArrow=classic;html=1;rounded=0;entryX=0.947;entryY=1.044;entryDx=0;entryDy=0;exitX=0;exitY=0.5;exitDx=0;exitDy=0;edgeStyle=orthogonalEdgeStyle;entryPerimeter=0;" edge="1" parent="1" source="MPyPgwC-mAi5A55ltHDj-17" target="MPyPgwC-mAi5A55ltHDj-14">
          <mxGeometry width="50" height="50" relative="1" as="geometry">
            <mxPoint x="700" y="-255" as="sourcePoint" />
            <mxPoint x="480" y="-500" as="targetPoint" />
            <Array as="points">
              <mxPoint x="502" y="-405" />
            </Array>
          </mxGeometry>
        </mxCell>
        <mxCell id="MPyPgwC-mAi5A55ltHDj-32" value="&lt;b&gt;Registration request&lt;/b&gt;" style="text;html=1;align=center;verticalAlign=middle;resizable=0;points=[];autosize=1;strokeColor=none;fillColor=none;" vertex="1" parent="1">
          <mxGeometry x="530" y="-570" width="140" height="30" as="geometry" />
        </mxCell>
        <mxCell id="MPyPgwC-mAi5A55ltHDj-33" value="&lt;b style=&quot;border-color: var(--border-color); color: rgb(0, 0, 0); font-family: Helvetica; font-size: 12px; font-style: normal; font-variant-ligatures: normal; font-variant-caps: normal; letter-spacing: normal; orphans: 2; text-align: center; text-indent: 0px; text-transform: none; widows: 2; word-spacing: 0px; -webkit-text-stroke-width: 0px; background-color: rgb(251, 251, 251); text-decoration-thickness: initial; text-decoration-style: initial; text-decoration-color: initial;&quot;&gt;Login request&lt;/b&gt;" style="text;whiteSpace=wrap;html=1;" vertex="1" parent="1">
          <mxGeometry x="550" y="-430" width="150" height="40" as="geometry" />
        </mxCell>
        <mxCell id="MPyPgwC-mAi5A55ltHDj-35" value="&lt;b style=&quot;border-color: var(--border-color); color: rgb(0, 0, 0); font-family: Helvetica; font-size: 12px; font-style: normal; font-variant-ligatures: normal; font-variant-caps: normal; letter-spacing: normal; orphans: 2; text-align: center; text-indent: 0px; text-transform: none; widows: 2; word-spacing: 0px; -webkit-text-stroke-width: 0px; background-color: rgb(251, 251, 251); text-decoration-thickness: initial; text-decoration-style: initial; text-decoration-color: initial;&quot;&gt;View Monument request&lt;/b&gt;" style="text;whiteSpace=wrap;html=1;" vertex="1" parent="1">
          <mxGeometry x="530" y="-290" width="150" height="40" as="geometry" />
        </mxCell>
        <mxCell id="MPyPgwC-mAi5A55ltHDj-36" value="&lt;b style=&quot;border-color: var(--border-color); color: rgb(0, 0, 0); font-family: Helvetica; font-size: 12px; font-style: normal; font-variant-ligatures: normal; font-variant-caps: normal; letter-spacing: normal; orphans: 2; text-align: center; text-indent: 0px; text-transform: none; widows: 2; word-spacing: 0px; -webkit-text-stroke-width: 0px; background-color: rgb(251, 251, 251); text-decoration-thickness: initial; text-decoration-style: initial; text-decoration-color: initial;&quot;&gt;BookTicket request&lt;/b&gt;" style="text;whiteSpace=wrap;html=1;" vertex="1" parent="1">
          <mxGeometry x="530" y="-150" width="150" height="40" as="geometry" />
        </mxCell>
        <mxCell id="MPyPgwC-mAi5A55ltHDj-37" value="&lt;font style=&quot;font-size: 16px;&quot;&gt;Payment&lt;/font&gt;" style="ellipse;whiteSpace=wrap;html=1;aspect=fixed;" vertex="1" parent="1">
          <mxGeometry x="690" y="-40" width="110" height="110" as="geometry" />
        </mxCell>
        <mxCell id="MPyPgwC-mAi5A55ltHDj-38" value="" style="endArrow=classic;startArrow=classic;html=1;rounded=0;entryX=0.305;entryY=1.031;entryDx=0;entryDy=0;edgeStyle=orthogonalEdgeStyle;entryPerimeter=0;" edge="1" parent="1">
          <mxGeometry width="50" height="50" relative="1" as="geometry">
            <mxPoint x="690" y="13" as="sourcePoint" />
            <mxPoint x="408.8000000000002" y="-510" as="targetPoint" />
            <Array as="points">
              <mxPoint x="409" y="13.14" />
            </Array>
          </mxGeometry>
        </mxCell>
        <mxCell id="MPyPgwC-mAi5A55ltHDj-39" value="&lt;b style=&quot;border-color: var(--border-color); color: rgb(0, 0, 0); font-family: Helvetica; font-size: 12px; font-style: normal; font-variant-ligatures: normal; font-variant-caps: normal; letter-spacing: normal; orphans: 2; text-indent: 0px; text-transform: none; widows: 2; word-spacing: 0px; -webkit-text-stroke-width: 0px; text-decoration-thickness: initial; text-decoration-style: initial; text-decoration-color: initial; text-align: center; background-color: rgb(251, 251, 251);&quot;&gt;Payment request&lt;/b&gt;" style="text;whiteSpace=wrap;html=1;" vertex="1" parent="1">
          <mxGeometry x="540" y="-10" width="140" height="40" as="geometry" />
        </mxCell>
        <mxCell id="MPyPgwC-mAi5A55ltHDj-45" value="&lt;font style=&quot;font-size: 16px;&quot;&gt;Registration&lt;/font&gt;" style="text;html=1;strokeColor=none;fillColor=none;align=center;verticalAlign=middle;whiteSpace=wrap;rounded=0;fontSize=24;" vertex="1" parent="1">
          <mxGeometry x="715" y="-555" width="60" height="30" as="geometry" />
        </mxCell>
        <mxCell id="MPyPgwC-mAi5A55ltHDj-46" value="&lt;span style=&quot;font-size: 16px;&quot;&gt;Cancel&lt;br&gt;Ticket&lt;br&gt;&lt;/span&gt;" style="ellipse;whiteSpace=wrap;html=1;aspect=fixed;" vertex="1" parent="1">
          <mxGeometry x="690" y="100" width="110" height="110" as="geometry" />
        </mxCell>
        <mxCell id="MPyPgwC-mAi5A55ltHDj-47" value="" style="endArrow=classic;startArrow=classic;html=1;rounded=0;entryX=0.167;entryY=1.07;entryDx=0;entryDy=0;edgeStyle=orthogonalEdgeStyle;entryPerimeter=0;" edge="1" parent="1">
          <mxGeometry width="50" height="50" relative="1" as="geometry">
            <mxPoint x="690" y="151" as="sourcePoint" />
            <mxPoint x="386.72" y="-509.99999999999994" as="targetPoint" />
          </mxGeometry>
        </mxCell>
        <mxCell id="MPyPgwC-mAi5A55ltHDj-49" value="&lt;b style=&quot;border-color: var(--border-color); color: rgb(0, 0, 0); font-family: Helvetica; font-size: 12px; font-style: normal; font-variant-ligatures: normal; font-variant-caps: normal; letter-spacing: normal; orphans: 2; text-indent: 0px; text-transform: none; widows: 2; word-spacing: 0px; -webkit-text-stroke-width: 0px; text-decoration-thickness: initial; text-decoration-style: initial; text-decoration-color: initial; text-align: center; background-color: rgb(251, 251, 251);&quot;&gt;Cancel Ticket request&lt;/b&gt;" style="text;whiteSpace=wrap;html=1;" vertex="1" parent="1">
          <mxGeometry x="550" y="120" width="130" height="40" as="geometry" />
        </mxCell>
        <mxCell id="MPyPgwC-mAi5A55ltHDj-51" value="&lt;span style=&quot;font-size: 16px;&quot;&gt;LogOut&lt;br&gt;&lt;/span&gt;" style="ellipse;whiteSpace=wrap;html=1;aspect=fixed;" vertex="1" parent="1">
          <mxGeometry x="690" y="240" width="110" height="110" as="geometry" />
        </mxCell>
        <mxCell id="MPyPgwC-mAi5A55ltHDj-52" value="" style="endArrow=classic;startArrow=classic;html=1;rounded=0;entryX=0.06;entryY=1.037;entryDx=0;entryDy=0;exitX=0.002;exitY=0.374;exitDx=0;exitDy=0;edgeStyle=orthogonalEdgeStyle;entryPerimeter=0;exitPerimeter=0;" edge="1" parent="1" target="MPyPgwC-mAi5A55ltHDj-14">
          <mxGeometry width="50" height="50" relative="1" as="geometry">
            <mxPoint x="690.0000000000002" y="291.1400000000001" as="sourcePoint" />
            <mxPoint x="359.78" y="-500" as="targetPoint" />
            <Array as="points">
              <mxPoint x="361" y="291" />
              <mxPoint x="361" y="-500" />
              <mxPoint x="360" y="-500" />
            </Array>
          </mxGeometry>
        </mxCell>
        <mxCell id="MPyPgwC-mAi5A55ltHDj-53" value="&lt;b style=&quot;border-color: var(--border-color); color: rgb(0, 0, 0); font-family: Helvetica; font-size: 12px; font-style: normal; font-variant-ligatures: normal; font-variant-caps: normal; letter-spacing: normal; orphans: 2; text-indent: 0px; text-transform: none; widows: 2; word-spacing: 0px; -webkit-text-stroke-width: 0px; text-decoration-thickness: initial; text-decoration-style: initial; text-decoration-color: initial; text-align: center; background-color: rgb(251, 251, 251);&quot;&gt;LogOut User request&lt;/b&gt;" style="text;whiteSpace=wrap;html=1;" vertex="1" parent="1">
          <mxGeometry x="545" y="260" width="160" height="40" as="geometry" />
        </mxCell>
        <mxCell id="MPyPgwC-mAi5A55ltHDj-54" value="User_Details" style="shape=partialRectangle;whiteSpace=wrap;html=1;left=0;right=0;fillColor=none;" vertex="1" parent="1">
          <mxGeometry x="950" y="-430" width="120" height="40" as="geometry" />
        </mxCell>
        <mxCell id="MPyPgwC-mAi5A55ltHDj-56" value="Monument_Details" style="shape=partialRectangle;whiteSpace=wrap;html=1;left=0;right=0;fillColor=none;" vertex="1" parent="1">
          <mxGeometry x="950" y="-290" width="120" height="40" as="geometry" />
        </mxCell>
        <mxCell id="MPyPgwC-mAi5A55ltHDj-57" value="Booking&amp;nbsp;" style="shape=partialRectangle;whiteSpace=wrap;html=1;left=0;right=0;fillColor=none;" vertex="1" parent="1">
          <mxGeometry x="950" y="-145" width="120" height="40" as="geometry" />
        </mxCell>
        <mxCell id="MPyPgwC-mAi5A55ltHDj-58" value="User_Details" style="shape=partialRectangle;whiteSpace=wrap;html=1;left=0;right=0;fillColor=none;" vertex="1" parent="1">
          <mxGeometry x="950" y="-560" width="120" height="40" as="geometry" />
        </mxCell>
        <mxCell id="MPyPgwC-mAi5A55ltHDj-59" value="Payment" style="shape=partialRectangle;whiteSpace=wrap;html=1;left=0;right=0;fillColor=none;" vertex="1" parent="1">
          <mxGeometry x="950" y="-10" width="120" height="40" as="geometry" />
        </mxCell>
        <mxCell id="MPyPgwC-mAi5A55ltHDj-60" value="Booking&amp;nbsp;" style="shape=partialRectangle;whiteSpace=wrap;html=1;left=0;right=0;fillColor=none;" vertex="1" parent="1">
          <mxGeometry x="940" y="135" width="120" height="40" as="geometry" />
        </mxCell>
        <mxCell id="MPyPgwC-mAi5A55ltHDj-61" value="User_Details" style="shape=partialRectangle;whiteSpace=wrap;html=1;left=0;right=0;fillColor=none;" vertex="1" parent="1">
          <mxGeometry x="940" y="270" width="120" height="40" as="geometry" />
        </mxCell>
        <mxCell id="MPyPgwC-mAi5A55ltHDj-62" value="" style="endArrow=classic;html=1;rounded=0;exitX=1.027;exitY=0.424;exitDx=0;exitDy=0;exitPerimeter=0;entryX=0;entryY=0.25;entryDx=0;entryDy=0;" edge="1" parent="1" source="MPyPgwC-mAi5A55ltHDj-16" target="MPyPgwC-mAi5A55ltHDj-58">
          <mxGeometry width="50" height="50" relative="1" as="geometry">
            <mxPoint x="820" y="-530" as="sourcePoint" />
            <mxPoint x="870" y="-580" as="targetPoint" />
          </mxGeometry>
        </mxCell>
        <mxCell id="MPyPgwC-mAi5A55ltHDj-63" value="" style="endArrow=classic;html=1;rounded=0;exitX=0;exitY=0.75;exitDx=0;exitDy=0;" edge="1" parent="1" source="MPyPgwC-mAi5A55ltHDj-58">
          <mxGeometry width="50" height="50" relative="1" as="geometry">
            <mxPoint x="820" y="-530" as="sourcePoint" />
            <mxPoint x="800" y="-530" as="targetPoint" />
          </mxGeometry>
        </mxCell>
        <mxCell id="MPyPgwC-mAi5A55ltHDj-64" value="" style="endArrow=classic;html=1;rounded=0;exitX=0;exitY=0.75;exitDx=0;exitDy=0;entryX=1;entryY=0.545;entryDx=0;entryDy=0;entryPerimeter=0;" edge="1" parent="1" source="MPyPgwC-mAi5A55ltHDj-54" target="MPyPgwC-mAi5A55ltHDj-17">
          <mxGeometry width="50" height="50" relative="1" as="geometry">
            <mxPoint x="960" y="-520" as="sourcePoint" />
            <mxPoint x="810" y="-400" as="targetPoint" />
          </mxGeometry>
        </mxCell>
        <mxCell id="MPyPgwC-mAi5A55ltHDj-65" value="" style="endArrow=classic;html=1;rounded=0;entryX=0;entryY=0.25;entryDx=0;entryDy=0;" edge="1" parent="1" target="MPyPgwC-mAi5A55ltHDj-54">
          <mxGeometry width="50" height="50" relative="1" as="geometry">
            <mxPoint x="801" y="-420" as="sourcePoint" />
            <mxPoint x="960" y="-540" as="targetPoint" />
          </mxGeometry>
        </mxCell>
        <mxCell id="MPyPgwC-mAi5A55ltHDj-67" value="" style="endArrow=classic;html=1;rounded=0;entryX=0;entryY=0.25;entryDx=0;entryDy=0;" edge="1" parent="1" target="MPyPgwC-mAi5A55ltHDj-56">
          <mxGeometry width="50" height="50" relative="1" as="geometry">
            <mxPoint x="800" y="-280" as="sourcePoint" />
            <mxPoint x="980" y="-520" as="targetPoint" />
          </mxGeometry>
        </mxCell>
        <mxCell id="MPyPgwC-mAi5A55ltHDj-68" value="" style="endArrow=classic;html=1;rounded=0;exitX=0;exitY=0.75;exitDx=0;exitDy=0;entryX=1.032;entryY=0.556;entryDx=0;entryDy=0;entryPerimeter=0;" edge="1" parent="1" source="MPyPgwC-mAi5A55ltHDj-56" target="MPyPgwC-mAi5A55ltHDj-18">
          <mxGeometry width="50" height="50" relative="1" as="geometry">
            <mxPoint x="960" y="-390" as="sourcePoint" />
            <mxPoint x="810" y="-390" as="targetPoint" />
          </mxGeometry>
        </mxCell>
        <mxCell id="MPyPgwC-mAi5A55ltHDj-69" value="" style="endArrow=classic;html=1;rounded=0;exitX=1.053;exitY=0.449;exitDx=0;exitDy=0;exitPerimeter=0;entryX=-0.044;entryY=0.319;entryDx=0;entryDy=0;entryPerimeter=0;" edge="1" parent="1" source="MPyPgwC-mAi5A55ltHDj-19" target="MPyPgwC-mAi5A55ltHDj-57">
          <mxGeometry width="50" height="50" relative="1" as="geometry">
            <mxPoint x="812" y="-271" as="sourcePoint" />
            <mxPoint x="960" y="-270" as="targetPoint" />
          </mxGeometry>
        </mxCell>
        <mxCell id="MPyPgwC-mAi5A55ltHDj-70" value="" style="endArrow=classic;html=1;rounded=0;exitX=0;exitY=0.75;exitDx=0;exitDy=0;" edge="1" parent="1" source="MPyPgwC-mAi5A55ltHDj-57">
          <mxGeometry width="50" height="50" relative="1" as="geometry">
            <mxPoint x="960" y="-250" as="sourcePoint" />
            <mxPoint x="810" y="-115" as="targetPoint" />
          </mxGeometry>
        </mxCell>
        <mxCell id="MPyPgwC-mAi5A55ltHDj-73" value="" style="endArrow=classic;html=1;rounded=0;entryX=0;entryY=0.25;entryDx=0;entryDy=0;" edge="1" parent="1" target="MPyPgwC-mAi5A55ltHDj-59">
          <mxGeometry width="50" height="50" relative="1" as="geometry">
            <mxPoint x="810" as="sourcePoint" />
            <mxPoint x="955" y="-122" as="targetPoint" />
          </mxGeometry>
        </mxCell>
        <mxCell id="MPyPgwC-mAi5A55ltHDj-74" value="" style="endArrow=classic;html=1;rounded=0;exitX=0;exitY=0.75;exitDx=0;exitDy=0;" edge="1" parent="1" source="MPyPgwC-mAi5A55ltHDj-59">
          <mxGeometry width="50" height="50" relative="1" as="geometry">
            <mxPoint x="960" y="-105" as="sourcePoint" />
            <mxPoint x="810" y="20" as="targetPoint" />
          </mxGeometry>
        </mxCell>
        <mxCell id="MPyPgwC-mAi5A55ltHDj-75" value="" style="endArrow=classic;html=1;rounded=0;exitX=0;exitY=0.75;exitDx=0;exitDy=0;" edge="1" parent="1" source="MPyPgwC-mAi5A55ltHDj-60">
          <mxGeometry width="50" height="50" relative="1" as="geometry">
            <mxPoint x="960" y="30" as="sourcePoint" />
            <mxPoint x="810" y="165" as="targetPoint" />
          </mxGeometry>
        </mxCell>
        <mxCell id="MPyPgwC-mAi5A55ltHDj-76" value="" style="endArrow=classic;html=1;rounded=0;entryX=0;entryY=0.25;entryDx=0;entryDy=0;" edge="1" parent="1" target="MPyPgwC-mAi5A55ltHDj-60">
          <mxGeometry width="50" height="50" relative="1" as="geometry">
            <mxPoint x="810" y="145" as="sourcePoint" />
            <mxPoint x="960" y="10" as="targetPoint" />
          </mxGeometry>
        </mxCell>
        <mxCell id="MPyPgwC-mAi5A55ltHDj-77" value="" style="endArrow=classic;html=1;rounded=0;exitX=0;exitY=0.75;exitDx=0;exitDy=0;" edge="1" parent="1" source="MPyPgwC-mAi5A55ltHDj-61">
          <mxGeometry width="50" height="50" relative="1" as="geometry">
            <mxPoint x="950" y="175" as="sourcePoint" />
            <mxPoint x="810" y="300" as="targetPoint" />
          </mxGeometry>
        </mxCell>
        <mxCell id="MPyPgwC-mAi5A55ltHDj-78" value="" style="endArrow=classic;html=1;rounded=0;entryX=0;entryY=0.25;entryDx=0;entryDy=0;" edge="1" parent="1" target="MPyPgwC-mAi5A55ltHDj-61">
          <mxGeometry width="50" height="50" relative="1" as="geometry">
            <mxPoint x="810" y="280" as="sourcePoint" />
            <mxPoint x="950" y="155" as="targetPoint" />
          </mxGeometry>
        </mxCell>
        <mxCell id="MPyPgwC-mAi5A55ltHDj-79" value="Insert Data" style="text;html=1;align=center;verticalAlign=middle;resizable=0;points=[];autosize=1;strokeColor=none;fillColor=none;" vertex="1" parent="1">
          <mxGeometry x="830" y="-582" width="80" height="30" as="geometry" />
        </mxCell>
        <mxCell id="MPyPgwC-mAi5A55ltHDj-80" value="&lt;span style=&quot;color: rgb(0, 0, 0); font-family: Helvetica; font-size: 12px; font-style: normal; font-variant-ligatures: normal; font-variant-caps: normal; font-weight: 400; letter-spacing: normal; orphans: 2; text-align: center; text-indent: 0px; text-transform: none; widows: 2; word-spacing: 0px; -webkit-text-stroke-width: 0px; background-color: rgb(251, 251, 251); text-decoration-thickness: initial; text-decoration-style: initial; text-decoration-color: initial; float: none; display: inline !important;&quot;&gt;Validation Data&lt;/span&gt;" style="text;whiteSpace=wrap;html=1;" vertex="1" parent="1">
          <mxGeometry x="840" y="-450" width="90" height="40" as="geometry" />
        </mxCell>
        <mxCell id="MPyPgwC-mAi5A55ltHDj-81" value="&lt;span style=&quot;color: rgb(0, 0, 0); font-family: Helvetica; font-size: 12px; font-style: normal; font-variant-ligatures: normal; font-variant-caps: normal; font-weight: 400; letter-spacing: normal; orphans: 2; text-align: center; text-indent: 0px; text-transform: none; widows: 2; word-spacing: 0px; -webkit-text-stroke-width: 0px; background-color: rgb(251, 251, 251); text-decoration-thickness: initial; text-decoration-style: initial; text-decoration-color: initial; float: none; display: inline !important;&quot;&gt;View Data&lt;/span&gt;" style="text;whiteSpace=wrap;html=1;" vertex="1" parent="1">
          <mxGeometry x="840" y="-310" width="110" height="40" as="geometry" />
        </mxCell>
        <mxCell id="MPyPgwC-mAi5A55ltHDj-82" value="&lt;span style=&quot;color: rgb(0, 0, 0); font-family: Helvetica; font-size: 12px; font-style: normal; font-variant-ligatures: normal; font-variant-caps: normal; font-weight: 400; letter-spacing: normal; orphans: 2; text-align: center; text-indent: 0px; text-transform: none; widows: 2; word-spacing: 0px; -webkit-text-stroke-width: 0px; background-color: rgb(251, 251, 251); text-decoration-thickness: initial; text-decoration-style: initial; text-decoration-color: initial; float: none; display: inline !important;&quot;&gt;Booking Data&lt;/span&gt;" style="text;whiteSpace=wrap;html=1;" vertex="1" parent="1">
          <mxGeometry x="840" y="-160" width="110" height="40" as="geometry" />
        </mxCell>
        <mxCell id="MPyPgwC-mAi5A55ltHDj-83" value="&lt;span style=&quot;color: rgb(0, 0, 0); font-family: Helvetica; font-size: 12px; font-style: normal; font-variant-ligatures: normal; font-variant-caps: normal; font-weight: 400; letter-spacing: normal; orphans: 2; text-align: center; text-indent: 0px; text-transform: none; widows: 2; word-spacing: 0px; -webkit-text-stroke-width: 0px; background-color: rgb(251, 251, 251); text-decoration-thickness: initial; text-decoration-style: initial; text-decoration-color: initial; float: none; display: inline !important;&quot;&gt;Payment Data&lt;/span&gt;" style="text;whiteSpace=wrap;html=1;" vertex="1" parent="1">
          <mxGeometry x="830" y="-30" width="110" height="40" as="geometry" />
        </mxCell>
        <mxCell id="MPyPgwC-mAi5A55ltHDj-84" value="&lt;span style=&quot;color: rgb(0, 0, 0); font-family: Helvetica; font-size: 12px; font-style: normal; font-variant-ligatures: normal; font-variant-caps: normal; font-weight: 400; letter-spacing: normal; orphans: 2; text-align: center; text-indent: 0px; text-transform: none; widows: 2; word-spacing: 0px; -webkit-text-stroke-width: 0px; background-color: rgb(251, 251, 251); text-decoration-thickness: initial; text-decoration-style: initial; text-decoration-color: initial; float: none; display: inline !important;&quot;&gt;Cancel Data&lt;/span&gt;" style="text;whiteSpace=wrap;html=1;" vertex="1" parent="1">
          <mxGeometry x="850" y="120" width="110" height="40" as="geometry" />
        </mxCell>
        <mxCell id="MPyPgwC-mAi5A55ltHDj-85" value="&lt;span style=&quot;color: rgb(0, 0, 0); font-family: Helvetica; font-size: 12px; font-style: normal; font-variant-ligatures: normal; font-variant-caps: normal; font-weight: 400; letter-spacing: normal; orphans: 2; text-align: center; text-indent: 0px; text-transform: none; widows: 2; word-spacing: 0px; -webkit-text-stroke-width: 0px; background-color: rgb(251, 251, 251); text-decoration-thickness: initial; text-decoration-style: initial; text-decoration-color: initial; float: none; display: inline !important;&quot;&gt;LogOut Data&lt;/span&gt;" style="text;whiteSpace=wrap;html=1;" vertex="1" parent="1">
          <mxGeometry x="850" y="260" width="110" height="40" as="geometry" />
        </mxCell>
        <mxCell id="MPyPgwC-mAi5A55ltHDj-86" value="&lt;div style=&quot;text-align: center;&quot;&gt;&lt;span style=&quot;background-color: initial;&quot;&gt;Response&lt;/span&gt;&lt;/div&gt;" style="text;whiteSpace=wrap;html=1;" vertex="1" parent="1">
          <mxGeometry x="840" y="-530" width="70" height="30" as="geometry" />
        </mxCell>
        <mxCell id="MPyPgwC-mAi5A55ltHDj-87" value="&lt;span style=&quot;color: rgb(0, 0, 0); font-family: Helvetica; font-size: 12px; font-style: normal; font-variant-ligatures: normal; font-variant-caps: normal; font-weight: 400; letter-spacing: normal; orphans: 2; text-align: center; text-indent: 0px; text-transform: none; widows: 2; word-spacing: 0px; -webkit-text-stroke-width: 0px; background-color: rgb(251, 251, 251); text-decoration-thickness: initial; text-decoration-style: initial; text-decoration-color: initial; float: none; display: inline !important;&quot;&gt;Response&lt;/span&gt;" style="text;whiteSpace=wrap;html=1;" vertex="1" parent="1">
          <mxGeometry x="860" y="-400" width="90" height="40" as="geometry" />
        </mxCell>
        <mxCell id="MPyPgwC-mAi5A55ltHDj-88" value="&lt;span style=&quot;color: rgb(0, 0, 0); font-family: Helvetica; font-size: 12px; font-style: normal; font-variant-ligatures: normal; font-variant-caps: normal; font-weight: 400; letter-spacing: normal; orphans: 2; text-align: center; text-indent: 0px; text-transform: none; widows: 2; word-spacing: 0px; -webkit-text-stroke-width: 0px; background-color: rgb(251, 251, 251); text-decoration-thickness: initial; text-decoration-style: initial; text-decoration-color: initial; float: none; display: inline !important;&quot;&gt;Response&lt;/span&gt;" style="text;whiteSpace=wrap;html=1;" vertex="1" parent="1">
          <mxGeometry x="850" y="-260" width="90" height="40" as="geometry" />
        </mxCell>
        <mxCell id="MPyPgwC-mAi5A55ltHDj-89" value="&lt;span style=&quot;color: rgb(0, 0, 0); font-family: Helvetica; font-size: 12px; font-style: normal; font-variant-ligatures: normal; font-variant-caps: normal; font-weight: 400; letter-spacing: normal; orphans: 2; text-align: center; text-indent: 0px; text-transform: none; widows: 2; word-spacing: 0px; -webkit-text-stroke-width: 0px; background-color: rgb(251, 251, 251); text-decoration-thickness: initial; text-decoration-style: initial; text-decoration-color: initial; float: none; display: inline !important;&quot;&gt;Response&lt;/span&gt;" style="text;whiteSpace=wrap;html=1;" vertex="1" parent="1">
          <mxGeometry x="850" y="-110" width="90" height="40" as="geometry" />
        </mxCell>
        <mxCell id="MPyPgwC-mAi5A55ltHDj-90" value="&lt;span style=&quot;color: rgb(0, 0, 0); font-family: Helvetica; font-size: 12px; font-style: normal; font-variant-ligatures: normal; font-variant-caps: normal; font-weight: 400; letter-spacing: normal; orphans: 2; text-align: center; text-indent: 0px; text-transform: none; widows: 2; word-spacing: 0px; -webkit-text-stroke-width: 0px; background-color: rgb(251, 251, 251); text-decoration-thickness: initial; text-decoration-style: initial; text-decoration-color: initial; float: none; display: inline !important;&quot;&gt;Response&lt;/span&gt;" style="text;whiteSpace=wrap;html=1;" vertex="1" parent="1">
          <mxGeometry x="850" y="20" width="90" height="40" as="geometry" />
        </mxCell>
        <mxCell id="MPyPgwC-mAi5A55ltHDj-92" value="&lt;span style=&quot;color: rgb(0, 0, 0); font-family: Helvetica; font-size: 12px; font-style: normal; font-variant-ligatures: normal; font-variant-caps: normal; font-weight: 400; letter-spacing: normal; orphans: 2; text-align: center; text-indent: 0px; text-transform: none; widows: 2; word-spacing: 0px; -webkit-text-stroke-width: 0px; background-color: rgb(251, 251, 251); text-decoration-thickness: initial; text-decoration-style: initial; text-decoration-color: initial; float: none; display: inline !important;&quot;&gt;Response&lt;/span&gt;" style="text;whiteSpace=wrap;html=1;" vertex="1" parent="1">
          <mxGeometry x="870" y="160" width="90" height="40" as="geometry" />
        </mxCell>
        <mxCell id="MPyPgwC-mAi5A55ltHDj-93" value="&lt;span style=&quot;color: rgb(0, 0, 0); font-family: Helvetica; font-size: 12px; font-style: normal; font-variant-ligatures: normal; font-variant-caps: normal; font-weight: 400; letter-spacing: normal; orphans: 2; text-align: center; text-indent: 0px; text-transform: none; widows: 2; word-spacing: 0px; -webkit-text-stroke-width: 0px; background-color: rgb(251, 251, 251); text-decoration-thickness: initial; text-decoration-style: initial; text-decoration-color: initial; float: none; display: inline !important;&quot;&gt;Response&lt;/span&gt;" style="text;whiteSpace=wrap;html=1;" vertex="1" parent="1">
          <mxGeometry x="860" y="300" width="90" height="40" as="geometry" />
        </mxCell>
      </root>
    </mxGraphModel>
  </diagram>
</mxfile>
